# xmcd CD database file
#
# Track frame offsets:
#	150
#	16480
#	35385
#	51790
#
# Disc length: 936 seconds
#
# Revision: 0
# Processed by: cddbd v1.5PL3 Copyright (c) Steve Scherf et al.
# Submitted via: CDex 1.40Release
#
DISCID=2903a604
DTITLE=Λucifer - JUNK CITY
DYEAR=1900
DGENRE=Rock
TTITLE0=JUNK CITY
TTITLE1=輪廻の瞳
TTITLE2=JUNK CITY (off vocal version)
TTITLE3=輪廻の瞳 (off vocal version)
EXTD=ID3G: 17
EXTT0=
EXTT1=
EXTT2=
EXTT3=
PLAYORDER=
